<?xml version="1.0" encoding="UTF-8"?>
<!-- Created with Inkscape (http://www.inkscape.org/) -->
<svg width="40" height="40" version="1.1" viewBox="0 0 40 40" xmlns="http://www.w3.org/2000/svg">
 <path d="m28.16 35.604c-3.3491-0.74932-6.3967-2.7125-8.6994-5.6041-1.3071-1.6413-1.7098-2.3038-2.9758-4.8953l-1.0448-2.1386-3.4-0.04574c-1.9351-0.02604-3.4 0.01985-3.4 0.10649 0 0.08373-0.324 0.77273-0.72 1.5311s-0.72 1.5685-0.72 1.8003c0 0.53244 0.50891 1.0801 1.125 1.2106 1.2594 0.26682 0.12825 0.39725-3.445 0.39725-2.156 0-3.92-0.04543-3.92-0.10095 0-0.05553 0.13289-0.30341 0.29531-0.55085 0.55616-0.8473 8.6647-16.11 8.6647-16.309 0-0.1096-0.31741-0.67047-0.70536-1.2464-1.7205-2.5541-3.8249-3.6924-6.1746-3.3398-1.2475 0.1872-1.5762-0.0088734-0.61358-0.36596 0.38147-0.14151 1.1256-0.42356 1.6536-0.62677 2.873-1.1058 3.351-1.2265 5.2-1.3137 2.1326-0.10061 3.3017 0.1395 4.9516 1.0169 1.2916 0.68688 3.3629 2.7371 4.4452 4.4 0.44153 0.67837 2.3192 4.2965 4.1726 8.0404 4.5774 9.2464 5.2201 10.335 7.5376 12.772 2.2157 2.33 4.1869 3.2172 7.1481 3.2172 1.7957 0 1.819 0.12927 0.13574 0.75318-0.61096 0.22646-1.6148 0.60261-2.2308 0.83589-2.2082 0.83624-4.8422 1.0011-7.28 0.45567zm-13.92-15.325c0-0.17194-1.7838-4.0034-1.8989-4.0788-0.13812-0.090424-2.1011 3.5965-2.1011 3.9463 0 0.13328 0.61459 0.1924 2 0.1924 1.1 0 2-0.02698 2-0.05996z" fill="#6cfacf"/>
 <path d="m28.16 35.616c-3.3891-0.78701-6.4038-2.733-8.6994-5.6156-1.3071-1.6413-1.7098-2.3038-2.9758-4.8953l-1.0448-2.1386h-9.1192l-1.0746 2.0339c-0.59102 1.1186-1.0772 2.2436-1.0804 2.5l-0.0058089 0.4661h-1.6c-0.88 0-1.6-0.04543-1.6-0.10095 0-0.05553 0.13289-0.30341 0.29531-0.55085 0.55616-0.84729 8.6647-16.11 8.6647-16.309 0-0.1096-0.31741-0.67047-0.70536-1.2464-1.7194-2.5525-3.8216-3.6902-6.1746-3.3418-1.8626 0.27581-1.654-0.060296 0.46656-0.75164 1.7262-0.56278 4.36-0.64051 5.8534-0.17275 2.3335 0.73088 4.53 2.5103 6.2049 5.0267 0.4072 0.61177 2.1539 3.9677 3.8816 7.4576 4.0142 8.1086 4.0689 8.2129 5.4184 10.325 2.0057 3.1392 4.1216 5.077 6.495 5.9485 1.106 0.40612 3.2632 0.53417 4.88 0.28968l0.8-0.12097-0.58142 0.32678c-1.8853 1.0596-5.7408 1.4637-8.2986 0.86973zm-13.53-14.243c0.049048-0.08407-0.29262-0.98026-0.75927-1.9915-0.46665-1.0113-1.2392-2.6972-1.7168-3.7465-0.47761-1.0493-0.94169-1.8837-1.0313-1.8542-0.25921 0.08528-3.9634 7.3691-3.848 7.5668 0.13011 0.22301 7.2258 0.24756 7.3554 0.02544z" fill="#a984fc"/>
 <path d="m29.488 35.422c-3.2837-0.48001-6.3536-2.1054-8.772-4.6444-1.5037-1.5787-2.5947-3.2547-3.871-5.9468-0.57454-1.2119-1.1258-2.2594-1.2249-2.3279-0.22413-0.15477-4.7658-0.16586-7.4968-0.018314l-2.0365 0.11002-1.1235 2.1915c-0.61795 1.2053-1.1235 2.3249-1.1235 2.488 0 0.25592-0.12578 0.28699-0.92 0.22728-0.506-0.038045-0.97292-0.082455-1.0376-0.098691-0.064682-0.016235 1.7627-3.538 4.0607-7.8261 2.2981-4.2881 4.2531-7.9959 4.3444-8.2395 0.14614-0.38977 0.075706-0.58694-0.58679-1.6426-1.2689-2.0219-3.0383-3.3995-4.7601-3.7062-0.68221-0.12152-0.68803-0.12784-0.22069-0.23969 0.264-0.063183 1.2233-0.1239 2.1318-0.13493 1.3741-0.016682 1.8536 0.051723 2.8525 0.40691 2.2835 0.81204 4.1721 2.4853 5.8451 5.179 0.4878 0.78538 2.2392 4.1737 3.8919 7.5297 4.4404 9.0164 5.3408 10.56 7.5188 12.887 1.9533 2.0873 3.8912 3.1555 6.2032 3.4193 0.93347 0.10651 0.9612 0.1217 0.43676 0.23908-0.98933 0.22143-3.0909 0.29692-4.1117 0.14769zm-14.413-14.066c-0.04749-0.44702-1.7334-4.2971-2.4493-5.5932-0.23168-0.41949-0.58849-1.2013-0.79291-1.7373-0.24766-0.64938-0.46236-0.97458-0.64344-0.97458-0.1908 0-0.89703 1.2299-2.3706 4.1283-1.1543 2.2706-2.0988 4.2549-2.0988 4.4096 0 0.25605 0.37675 0.27722 4.2 0.23609l4.2-0.04519z" fill="#aa7efd"/>
</svg>
